<?xml version="1.0" encoding="UTF-8" standalone="no"?>
<svg width="360px" height="589px" viewBox="0 0 360 589" version="1.1" xmlns="http://www.w3.org/2000/svg" xmlns:xlink="http://www.w3.org/1999/xlink">
    <!-- Generator: sketchtool 39.1 (31720) - http://www.bohemiancoding.com/sketch -->
    <title>CD9B4C43-5430-460F-AAD6-360C2998384B</title>
    <desc>Created with sketchtool.</desc>
    <defs></defs>
    <g id="Page-1" stroke="none" stroke-width="1" fill="none" fill-rule="evenodd">
        <g id="Паттерн-на-экран-входа" transform="translate(0.000000, -32.000000)">
            <g id="вход-1-экран-copy" transform="translate(-31.000000, 22.000000)">
                <g id="Page-1">
                    <g>
                        <g id="вход-1-экран-copy">
                            <rect id="Rectangle-path" fill="#D5F5FF" transform="translate(383.443337, 52.238083) rotate(-32.030000) translate(-383.443337, -52.238083) " x="381.259144" y="26.1184882" width="4.36838462" height="52.2391892"></rect>
                            <path d="M363.271936,35.4863534 L406.108936,65.4222993 L403.593552,68.9998669 L360.773321,39.0304074 L363.288706,35.4528399 L363.271936,35.4863534 L363.271936,35.4863534 L363.271936,35.4863534 Z M363.288706,32.9393263 C362.455167,32.9342952 361.673269,33.3422114 361.200936,34.0285155 L358.685552,37.6060831 C358.290103,38.1565959 358.13386,38.8433417 358.252254,39.5105861 C358.370648,40.1778306 358.753647,40.7690371 359.314398,41.1501371 L402.151398,71.0860831 C402.702321,71.4812375 403.389578,71.6373644 404.057319,71.5190587 C404.72506,71.4007529 405.316707,71.0180387 405.69809,70.4577047 L408.213475,66.8801371 C408.608924,66.3296243 408.765167,65.6428785 408.646773,64.9756341 C408.528379,64.3083896 408.14538,63.717183 407.584629,63.3360831 L364.739244,33.4001372 C364.312621,33.0988775 363.802717,32.9378206 363.280321,32.9393263 L363.288706,32.9393263 L363.288706,32.9393263 L363.288706,32.9393263 Z" id="Shape" stroke="#452D3F" fill="#4E3447" transform="translate(383.449514, 52.248476) rotate(23.000000) translate(-383.449514, -52.248476) "></path>
                            <ellipse id="Oval" stroke="#4E3447" stroke-width="3" fill="#FFCC33" transform="translate(337.233068, 48.428317) rotate(12.970000) translate(-337.233068, -48.428317) " cx="337.233068" cy="48.4283168" rx="16.2242308" ry="16.2121622"></ellipse>
                            <ellipse id="Oval" fill="#D5F5FF" transform="translate(351.590848, 115.184129) rotate(12.970000) translate(-351.590848, -115.184129) " cx="351.590848" cy="115.184129" rx="7.32815385" ry="7.3227027"></ellipse>
                            <path d="M351.59266,107.869434 C355.519206,107.881569 358.740093,110.980822 358.900392,114.901195 C359.06069,118.821568 356.103564,122.173056 352.191097,122.50524 C348.27863,122.837425 344.798023,120.032527 344.2941,116.141329 C343.790176,112.250132 346.441606,108.652294 350.309814,107.978352 C350.733403,107.904508 351.162675,107.868061 351.59266,107.869434 L351.59266,107.869434 L351.59266,107.869434 L351.59266,107.869434 Z M351.59266,105.35592 L351.59266,105.35592 C347.439222,105.352307 343.727267,107.945567 342.304531,111.844828 C340.881794,115.744089 342.052281,120.116173 345.233347,122.784745 C348.414413,125.453317 352.92634,125.848167 356.523183,123.772747 C360.120026,121.697327 362.033225,117.595104 361.310429,113.508082 C360.467036,108.795555 356.383364,105.35219 351.59266,105.314028 L351.59266,105.35592 L351.59266,105.35592 L351.59266,105.35592 Z" id="Shape" stroke="#452D3F" fill="#4E3447" transform="translate(351.584055, 115.204743) rotate(23.000000) translate(-351.584055, -115.204743) "></path>
                            <path d="M389.256961,68.8731774 L361.629653,122.101015" id="Shape" stroke="#D5F5FF" stroke-width="5.21" transform="translate(375.443307, 95.487096) rotate(23.000000) translate(-375.443307, -95.487096) "></path>
                            <path d="M389.256931,66.7033223 C390.017254,66.7070812 390.721132,67.1049247 391.116084,67.754147 C391.511037,68.4033692 391.540452,69.2109102 391.193778,69.8871061 L363.56647,123.131701 C363.010786,124.200596 361.69316,124.616971 360.62347,124.061701 C359.553779,123.506431 359.137094,122.189785 359.692777,121.12089 L387.362008,67.9014304 C387.736929,67.1778068 388.483397,66.7225096 389.298854,66.7200791 L389.256931,66.7033223 L389.256931,66.7033223 L389.256931,66.7033223 Z M389.298854,64.2065655 L389.298854,64.2065655 C387.542253,64.1996984 385.927119,65.1680579 385.106547,66.7200791 L357.437316,119.947917 C356.676115,121.412125 356.734344,123.167047 357.590933,124.577656 C358.447522,125.988264 359.978405,126.850251 361.629623,126.851701 C361.910792,126.851391 362.191379,126.826157 362.468085,126.776295 C363.919068,126.511362 365.161131,125.580508 365.821931,124.262782 L393.491162,71.0349439 C394.252363,69.5707362 394.194134,67.8158135 393.337545,66.4052052 C392.480956,64.9945969 390.950073,64.1326101 389.298854,64.1311601 L389.298854,64.2065655 L389.298854,64.2065655 L389.298854,64.2065655 Z" id="Shape" stroke="#3D2738" fill="#4E3447" transform="translate(375.464239, 95.491431) rotate(23.000000) translate(-375.464239, -95.491431) "></path>
                            <g id="Shape" transform="translate(339.325183, 41.547055) rotate(23.000000) translate(-339.325183, -41.547055) translate(308.825183, 10.047055)">
                                <path d="M57.225,11.4867568 L50.4250769,21.1972973 C60.1530173,31.7690273 61.0585184,47.7332712 52.5883077,59.3356757 C51.8763501,60.303556 50.5214724,60.5267214 49.5363077,59.8383784 L6.26330769,29.5924324 L3.74792308,27.8413514 C2.75891839,27.1538288 2.50180157,25.8021769 3.16938462,24.8 C11.5124202,12.3611111 27.7347971,7.9381704 41.2439231,14.4191892 L47.8677692,4.96 C49.5611024,2.57212069 52.7862444,1.8487216 55.3384615,3.28432432 C55.4977692,3.37648649 55.6486923,3.46864865 55.808,3.57756757 C58.3729176,5.37833376 59.0054038,8.90864624 57.225,11.4867568 L57.225,11.4867568 L57.225,11.4867568 L57.225,11.4867568 Z" fill="#BBECFF"></path>
                                <path d="M52.5715385,2.51351351 C53.5467384,2.5131466 54.5055374,2.76421124 55.3552308,3.24243243 C55.5145385,3.33459459 55.6654615,3.42675676 55.8247692,3.53567568 C58.3944533,5.34263107 59.0202088,8.88469279 57.225,11.4616216 L50.4250769,21.1972973 C60.1530173,31.7690273 61.0585184,47.7332712 52.5883077,59.3356757 C51.8763501,60.303556 50.5214724,60.5267214 49.5363077,59.8383784 L6.26330769,29.5924324 L3.74792308,27.8413514 C2.75891839,27.1538288 2.50180157,25.8021769 3.16938462,24.8 C11.5079137,12.3548493 27.7354966,7.93048922 41.2439231,14.4191892 L47.8677692,4.96 C48.9376913,3.42119972 50.6964074,2.50647049 52.5715385,2.51351351 L52.5715385,2.51351351 L52.5715385,2.51351351 L52.5715385,2.51351351 Z M52.5715385,-1.09552002e-13 C49.878152,-0.00233675343 47.3528252,1.30785508 45.8051538,3.51054054 L40.3803077,11.2605405 C36.527846,9.70557638 32.4110238,8.90899771 28.2561538,8.91459459 C26.3390385,8.91545171 24.4256627,9.08365868 22.5378462,9.4172973 C13.7661264,10.9329087 6.00419908,15.9865274 1.07323077,23.3924324 C-0.351509771,25.5483479 0.19413342,28.4451529 2.30576923,29.9359459 L4.82115385,31.687027 L48.0941538,61.932973 C50.2170486,63.4170733 53.1377744,62.9331295 54.6676923,60.8437838 C63.400195,48.8780477 62.9873055,32.5397881 53.6615385,21.0297297 L59.3295385,12.9445946 C61.9350676,9.21366496 61.0274613,4.07938524 57.3004615,1.46621622 C57.0992308,1.32378378 56.8896154,1.18972973 56.6548462,1.05567568 C55.4079781,0.35692279 54.0010896,-0.0068063541 52.5715385,-1.15505194e-13 L52.5715385,-1.09552002e-13 L52.5715385,-1.09552002e-13 L52.5715385,-1.09552002e-13 Z" stroke="#412A3A" fill="#4E3447"></path>
                                <path d="M57.225,11.4867568 L50.4250769,21.1972973 C60.0727922,31.664796 61.0728526,47.4512017 52.8230769,59.0508108 C52.0274894,60.1845717 50.4640967,60.4618019 49.3266923,59.6708108 L6.26330769,29.5840541 C14.1028627,15.8616395 31.223735,10.5283781 45.4781538,17.3683784 L55.3384615,3.25918919 C55.4977692,3.35135135 55.6486923,3.44351351 55.808,3.55243243 C58.3885972,5.35456158 59.0224784,8.9039049 57.225,11.4867568 L57.225,11.4867568 L57.225,11.4867568 L57.225,11.4867568 Z" fill="#D5F5FF"></path>
                            </g>
                            <path d="M398.555989,69.0546932 C402.482535,69.0668284 405.703422,72.1660818 405.863721,76.086454 C406.024019,80.006827 403.066893,83.358315 399.154426,83.690499 C395.241959,84.022684 391.761352,81.217786 391.257428,77.326589 C390.753504,73.4353913 393.404934,69.837554 397.273142,69.1636121 C397.696732,69.0897679 398.126003,69.053321 398.555989,69.0546932 L398.555989,69.0546932 L398.555989,69.0546932 L398.555989,69.0546932 Z M398.555989,66.5411797 L398.555989,66.5411797 C397.976951,66.5411465 397.399015,66.5916082 396.828758,66.6919905 C391.815889,67.6015706 388.317888,72.1719822 388.752316,77.244494 C389.186743,82.317005 393.411039,86.227036 398.505681,86.272261 C399.084719,86.272294 399.662655,86.221832 400.232912,86.12145 C405.245781,85.21187 408.743782,80.641458 408.309354,75.5689466 C407.874926,70.496435 403.650631,66.5864044 398.555989,66.5411797 L398.555989,66.5411797 L398.555989,66.5411797 L398.555989,66.5411797 Z" id="Shape" fill="#4E3447" transform="translate(398.530835, 76.406720) rotate(23.000000) translate(-398.530835, -76.406720) "></path>
                            <path d="M366.466551,135.502257 L329.792243,141.987122 C329.099592,142.111618 328.395178,141.840506 327.965062,141.283886 C327.534947,140.727265 327.450647,139.977687 327.746397,139.339554 C331.119379,132.047298 337.84961,126.86557 345.766116,125.465845 C353.682622,124.06612 361.783608,126.625526 367.455936,132.318473 C367.949678,132.81349 368.128829,133.540841 367.921411,134.208301 C367.713993,134.87576 367.154051,135.373775 366.466551,135.502257 L366.466551,135.502257 L366.466551,135.502257 L366.466551,135.502257 Z" id="Shape" fill="#D5F5FF" transform="translate(347.789020, 133.553478) rotate(23.000000) translate(-347.789020, -133.553478) "></path>
                            <path d="M350.013208,125.053389 C356.539849,125.068686 362.792716,127.675876 367.394516,132.300686 C367.888878,132.799192 368.065184,133.530848 367.852089,134.199575 C367.638994,134.868303 367.071778,135.363382 366.379977,135.48447 L329.70567,141.969335 C329.591304,141.979472 329.476265,141.979472 329.3619,141.969335 C328.72562,141.956888 328.138504,141.624721 327.800452,141.085929 C327.4624,140.547138 327.418981,139.874349 327.684977,139.296632 C331.718723,130.606807 340.435321,125.048551 350.021593,125.053389 L350.013208,125.053389 L350.013208,125.053389 L350.013208,125.053389 Z M350.021593,122.87501 L350.021593,122.87501 C339.386772,122.411372 329.573384,128.568527 325.370823,138.341497 C324.73201,139.692732 324.839909,141.278304 325.6559,142.530686 C326.468378,143.802248 327.877317,144.567888 329.387054,144.558253 C329.648913,144.552915 329.909815,144.524882 330.166823,144.47447 L366.849516,137.956091 C368.477363,137.668841 369.80946,136.499277 370.303977,134.923118 C370.806166,133.409824 370.384206,131.74285 369.222362,130.650145 C364.10868,125.610391 357.203873,122.802316 350.021593,122.841497 L350.021593,122.87501 L350.021593,122.87501 L350.021593,122.87501 Z" id="Shape" stroke="#412A3A" fill="#4E3447" transform="translate(347.735186, 133.699718) rotate(23.000000) translate(-347.735186, -133.699718) "></path>
                            <path d="M351.848556,45.9742764 C351.848556,45.9742764 360.15771,58.0223845 353.810556,70.1291413" id="Shape" stroke="#FFFFFF" stroke-width="5" transform="translate(354.024011, 58.051709) rotate(23.000000) translate(-354.024011, -58.051709) "></path>
                            <path d="M68.4535916,237.022921 L88.2317734,283.351493" id="Shape" stroke="#4E3447" stroke-width="4" transform="translate(78.342682, 260.187207) rotate(-5.000000) translate(-78.342682, -260.187207) "></path>
                            <path d="M115.614834,283.666322 L74.4999859,301.157036 C73.7568702,301.511148 72.8767853,301.41361 72.2296067,300.905416 C71.5824281,300.397222 71.280335,299.566459 71.4502889,298.762274 C73.4424683,289.350264 79.9013041,281.495717 88.7618427,277.70981 C97.6223814,273.923903 107.774931,274.680782 115.973622,279.738464 C116.663046,280.192679 117.046426,280.988425 116.971424,281.809509 C116.896423,282.630592 116.375188,283.344026 115.614834,283.666322 L115.614834,283.666322 L115.614834,283.666322 L115.614834,283.666322 Z" id="Shape" fill="#D5F5FF" transform="translate(94.192171, 288.346729) rotate(-5.000000) translate(-94.192171, -288.346729) "></path>
                            <path d="M115.614834,283.666322 L74.4999859,301.157036 C73.7568702,301.511148 72.8767853,301.41361 72.2296067,300.905416 C71.5824281,300.397222 71.280335,299.566459 71.4502889,298.762274 C73.4424683,289.350264 79.9013041,281.495717 88.7618427,277.70981 C97.6223814,273.923903 107.774931,274.680782 115.973622,279.738464 C116.663046,280.192679 117.046426,280.988425 116.971424,281.809509 C116.896423,282.630592 116.375188,283.344026 115.614834,283.666322 L115.614834,283.666322 L115.614834,283.666322 L115.614834,283.666322 Z" id="Shape" fill="#BCBCCE" transform="translate(94.192171, 288.346729) rotate(-5.000000) translate(-94.192171, -288.346729) "></path>
                            <path d="M100.359532,275.422193 C105.908727,275.4168 111.347776,276.967814 116.056502,279.898384 C116.779123,280.338812 117.191576,281.147922 117.122831,281.990203 C117.054085,282.832483 116.515865,283.5643 115.73135,283.882193 L74.6165017,301.406479 C73.8425174,301.752634 72.9390864,301.633339 72.2819241,301.098205 C71.6247618,300.563072 71.3263318,299.70368 71.5107441,298.877431 C74.3324077,285.210705 86.3786874,275.397899 100.359532,275.377431 L100.359532,275.422193 L100.359532,275.422193 L100.359532,275.422193 Z M100.359532,271.718146 L100.359532,271.718146 C84.7231908,271.840332 71.2812355,282.81156 68.0574108,298.082907 C67.6092487,300.193324 68.3747745,302.377315 70.0433466,303.748642 C71.7119187,305.119969 74.0063522,305.450826 75.9955926,304.606955 L117.110441,287.127431 C119.100603,286.287913 120.45466,284.409709 120.619835,282.259574 C120.796326,280.09626 119.761102,278.012588 117.928926,276.843384 C112.665915,273.538488 106.577545,271.777937 100.359532,271.762907 L100.359532,271.718146 L100.359532,271.718146 L100.359532,271.718146 Z" id="Shape" fill="#4E3447" transform="translate(94.285273, 288.393085) rotate(-5.000000) translate(-94.285273, -288.393085) "></path>
                            <path d="M39.7182825,216.944581 C39.7182825,216.944581 18.3367674,204.847676 11.2843431,215.176485 C4.23191888,225.505295 19.8840401,254.622914 40.592828,244.8872 C40.592828,244.8872 70.3049492,234.480057 39.7182825,216.944581 L39.7182825,216.944581 L39.7182825,216.944581 L39.7182825,216.944581 Z" id="Shape" fill="#BCBCCE" transform="translate(31.555652, 228.926582) rotate(-5.000000) translate(-31.555652, -228.926582) "></path>
                            <path d="M67.9274236,202.326366 C67.9274236,202.326366 82.9965146,182.944462 73.8025752,174.495652 C64.6086358,166.046843 33.5062115,177.326843 40.1662115,199.181843 C40.0989388,199.170652 46.1198479,230.011605 67.9274236,202.326366 L67.9274236,202.326366 L67.9274236,202.326366 L67.9274236,202.326366 Z" id="Shape" fill="#BCBCCE" transform="translate(58.007199, 192.773956) rotate(-5.000000) translate(-58.007199, -192.773956) "></path>
                            <path d="M97.257029,231.984862 C97.257029,231.984862 89.7449078,255.339386 77.5461199,252.519386 C65.347332,249.699386 57.1288472,217.739386 78.9364229,210.846053 C78.9364229,210.846053 107.830059,198.379862 97.257029,231.984862 L97.257029,231.984862 L97.257029,231.984862 L97.257029,231.984862 Z" id="Shape" fill="#BCBCCE" transform="translate(82.473486, 230.670109) rotate(-5.000000) translate(-82.473486, -230.670109) "></path>
                            <path d="M20.4976056,210.981365 C29.2094238,210.981365 39.7151814,216.923508 39.7151814,216.923508 C70.3018481,234.481365 40.5897269,244.899699 40.5897269,244.899699 C37.990624,246.135747 35.1493917,246.781624 32.2703329,246.790889 C15.9566966,246.790889 5.20427226,224.029461 11.281242,215.133032 C13.3891208,212.100413 16.7863935,210.981365 20.4976056,210.981365 L20.4976056,210.981365 L20.4976056,210.981365 L20.4976056,210.981365 Z M20.4976056,207.456365 C13.6918481,207.456365 10.1376056,210.567318 8.35487836,213.163508 C4.86790866,218.277556 5.36124196,226.782318 9.63306016,234.839461 C13.6021511,242.325889 21.6300299,250.32708 32.2591208,250.32708 C35.6093168,250.293462 38.911691,249.529615 41.9351814,248.088985 C44.2866998,247.202417 46.5409174,246.077484 48.6624541,244.731842 C53.7079087,241.475413 56.5894238,237.502794 56.9818481,233.250413 C57.5985147,226.536127 52.4969996,220.235889 41.4306359,213.879699 C40.9485147,213.611127 29.9942723,207.467556 20.4639693,207.467556 L20.4976056,207.456365 L20.4976056,207.456365 L20.4976056,207.456365 Z" id="Shape" fill="#4E3447" transform="translate(31.539114, 228.891722) rotate(-5.000000) translate(-31.539114, -228.891722) "></path>
                            <path d="M64.8311162,171.677381 C68.4638435,171.677381 71.659298,172.58381 73.8008132,174.486191 C83.0283889,182.946191 67.959298,202.316905 67.959298,202.316905 C61.2320253,210.9 55.9623283,213.854286 51.9483889,213.854286 C42.9786919,213.854286 40.1420253,199.161191 40.1420253,199.161191 C35.0068738,182.252381 52.4753586,171.666191 64.8871768,171.666191 L64.8311162,171.677381 L64.8311162,171.677381 L64.8311162,171.677381 Z M64.8871768,168.141191 C55.5811162,168.141191 45.3780859,173.132143 40.0635404,180.282857 C35.7803469,185.91576 34.5244744,193.281857 36.6999041,200.011667 C38.0229344,206.546905 42.6647526,217.368095 51.9371768,217.368095 C57.7450556,217.368095 63.9005101,213.149286 70.7286919,204.487857 C73.4208061,200.916859 75.7141951,197.063149 77.5680859,192.995238 C82.7368738,181.334762 79.6647526,175.090476 76.188995,171.89 C73.5205101,169.439286 69.6074798,168.152381 64.8871768,168.152381 L64.8871768,168.141191 L64.8871768,168.141191 L64.8871768,168.141191 Z" id="Shape" fill="#4E3447" transform="translate(57.986520, 192.754643) rotate(-5.000000) translate(-57.986520, -192.754643) "></path>
                            <path d="M89.3881214,208.585977 C96.3956972,208.585977 103.336,212.692881 97.2366062,231.985262 C97.2366062,231.985262 90.5093335,252.754786 79.5663032,252.754786 C78.879329,252.754704 78.1946383,252.675853 77.5256972,252.519786 C65.3493335,249.688596 57.1420608,217.739786 78.9496365,210.846453 C82.2696453,209.491806 85.8036045,208.734096 89.3881214,208.608358 L89.3881214,208.585977 L89.3881214,208.585977 L89.3881214,208.585977 Z M89.3881214,205.452643 L89.3881214,205.452643 C85.4023018,205.534145 81.4593269,206.290945 77.7275153,207.690739 C67.333879,211.047881 61.4026668,220.000262 61.8623638,231.828596 C62.2660002,242.112643 67.9393335,253.918596 76.7520608,255.955262 C77.6830473,256.163194 78.6347424,256.264562 79.5887275,256.257405 C85.4863032,256.257405 90.8793335,252.161691 95.5884244,244.115739 C97.6232009,240.592556 99.3056521,236.878069 100.611455,233.025977 C103.975091,222.249548 103.975091,214.886215 100.443273,210.119072 C98.7950911,207.880977 95.5435759,205.3855 89.3769093,205.3855 L89.3881214,205.452643 L89.3881214,205.452643 L89.3881214,205.452643 Z" id="Shape" fill="#4E3447" transform="translate(82.475509, 230.821630) rotate(-5.000000) translate(-82.475509, -230.821630) "></path>
                            <ellipse id="Oval" fill="#9295B1" transform="translate(57.663036, 221.662956) rotate(-28.080000) translate(-57.663036, -221.662956) " cx="57.6630359" cy="221.662956" rx="11.5148485" ry="11.492619"></ellipse>
                            <path d="M57.6515364,210.178185 C63.5655577,210.165946 68.5272671,214.627152 69.1302537,220.499008 C69.7332403,226.370865 65.7814165,231.74388 59.9878667,232.929264 C54.194317,234.114649 48.4430678,230.726924 46.6825807,225.091898 C44.9220935,219.456871 47.7248681,213.407018 53.166688,211.095804 C54.585032,210.493415 56.1101189,210.181375 57.6515364,210.178185 L57.6515364,210.178185 L57.6515364,210.178185 L57.6515364,210.178185 Z M57.6515364,206.653185 L57.6515364,206.653185 C51.009246,206.650119 45.150766,210.994403 43.2363862,217.342563 C41.3220063,223.690723 43.8046932,230.540705 49.3451896,234.197364 C54.885686,237.854023 62.173041,237.452148 67.2761746,233.208526 C72.3793081,228.964904 74.0907547,221.883629 71.487294,215.784614 C69.1461483,210.231454 63.6878744,206.629061 57.6515364,206.653185 L57.6515364,206.653185 L57.6515364,206.653185 L57.6515364,206.653185 Z" id="Shape" fill="#4E3447" transform="translate(57.644404, 221.670774) rotate(-5.000000) translate(-57.644404, -221.670774) "></path>
                            <ellipse id="Oval" fill="#625E8C" transform="translate(57.663036, 221.662956) rotate(-28.080000) translate(-57.663036, -221.662956) " cx="57.6630359" cy="221.662956" rx="5.96484848" ry="5.95333333"></ellipse>
                            <path d="M44.7337507,191.582342 C44.7337507,191.582342 49.0840537,176.284962 67.7746598,177.862819" id="Shape" stroke="#FFFFFF" stroke-width="5" transform="translate(56.254205, 184.665492) rotate(-5.000000) translate(-56.254205, -184.665492) "></path>
                            <path d="M83.0301771,214.899772 C83.0301771,214.899772 101.507753,210.792867 87.2459347,235.199296" id="Shape" stroke="#FFFFFF" stroke-width="5" transform="translate(87.840090, 224.919337) rotate(-5.000000) translate(-87.840090, -224.919337) "></path>
                            <g id="Group" transform="translate(50.386225, 89.501061) rotate(-52.000000) translate(-50.386225, -89.501061) translate(4.886225, 62.001061)">
                                <g id="Shape">
                                    <path d="M85.8893338,32.2680721 L83.6111021,19.7838074 C83.3761219,18.4446029 82.6229299,17.2574923 81.5204895,16.4887802 C71.3153518,9.54398159 42.4756192,1.48037456 31.6272161,3.05625715 C27.9116327,3.50596568 24.2773006,4.48899337 20.8324184,5.97607425 C15.9744244,8.17958108 11.230342,11.9862585 7.31044337,18.9378791 C6.0279555,21.2348301 4.92777683,23.6324336 4.02040882,26.1078038 C3.55806181,27.3357643 3.12251752,28.6251228 2.68027255,29.9895233 C2.2610293,31.3528175 2.41596606,32.8320828 3.10815128,34.0747136 C3.80033649,35.3173444 4.96775831,36.2120153 6.33214389,36.5454677 L68.7824943,51.7517115 C68.8360997,51.3901453 68.9031065,51.0695112 68.9835147,50.6738351 C69.6994608,47.7213394 71.28181,45.0609306 73.519876,43.0468362 C76.0813136,40.739989 79.1240601,39.0557729 82.4183808,38.1213503 C84.8780095,37.3645188 86.3770828,34.8365407 85.8893338,32.2680721 L85.8893338,32.2680721 L85.8893338,32.2680721 L85.8893338,32.2680721 Z M66.0218135,33.1958645 L32.5184067,27.8883465 C31.5644604,27.7439264 30.7068728,27.2170622 30.1367045,26.4251332 C29.5665362,25.6332042 29.3311539,24.6419999 29.482998,23.6723489 C29.482998,23.5700189 29.482998,23.4745108 29.5366035,23.3721808 C29.895631,21.8572355 31.1506122,20.7351497 32.6725224,20.5683377 L65.2043304,16.9731424 C66.1616554,16.8600024 67.1238268,17.1396322 67.8782282,17.7502402 C68.6326296,18.3608483 69.1171561,19.2521673 69.2247392,20.2272376 L70.2097394,29.0958409 C70.3495077,30.2521424 69.945827,31.407884 69.1203656,32.2147285 C68.2949042,33.021573 67.1442151,33.3851448 66.0151128,33.1958645 L66.0218135,33.1958645 L66.0218135,33.1958645 L66.0218135,33.1958645 Z" fill="#A2CF6D"></path>
                                    <path d="M34.8435431,2.86524108 C47.3470146,2.86524108 72.2199438,10.1579618 81.5405916,16.5092462 C82.6430319,17.2779583 83.396224,18.4650689 83.6312042,19.8042734 L85.9094358,32.2680721 C86.3997822,34.8286529 84.9141608,37.3534426 82.4652856,38.1213503 C79.1691888,39.0528128 76.1241093,40.7347192 73.5600801,43.0400142 C71.3195455,45.0531712 69.7348006,47.7136782 69.0170181,50.667013 C68.9299092,51.0285792 68.8629024,51.3492133 68.8159977,51.7448895 L6.3656473,36.5386457 C5.00292974,36.2120184 3.83373718,35.325796 3.13560502,34.0903443 C2.43747286,32.8548927 2.27265417,31.3803781 2.68027255,30.0168113 C3.09571479,28.6524108 3.53795976,27.3630523 4.02040882,26.1350918 C4.9320967,23.6592981 6.03676191,21.2616835 7.32384474,18.9651671 C11.2437433,12.0271905 15.9878257,8.22051309 20.8458197,6.00336226 C24.290702,4.51628138 27.9250341,3.53325369 31.6406174,3.08354516 C32.6999498,2.93864738 33.768026,2.87025653 34.8368424,2.87888508 L34.8435431,2.86524108 L34.8435431,2.86524108 L34.8435431,2.86524108 Z M66.5980721,33.2504405 C67.6267214,33.2467936 68.6056017,32.7992055 69.2916159,32.0188311 C69.9776302,31.2384567 70.3064218,30.1985047 70.196338,29.157239 L69.2113379,20.2886356 C69.0067409,18.4220252 67.4578661,17.0095527 65.613072,17.0072524 C65.4813875,17.0000247 65.3494162,17.0000247 65.2177318,17.0072524 L32.6859237,20.6024477 C31.1640135,20.7692597 29.9090324,21.8913455 29.5500048,23.4062908 C29.5500048,23.5086208 29.5098008,23.6041289 29.4963994,23.7064589 C29.346288,24.6730102 29.5807864,25.6606122 30.1479794,26.4506218 C30.7151724,27.2406315 31.56827,27.7678777 32.5184067,27.9156345 L66.0218135,33.2231525 C66.2081408,33.251316 66.3963034,33.2649995 66.5846708,33.2640845 L66.5980721,33.2504405 L66.5980721,33.2504405 L66.5980721,33.2504405 Z M34.8435431,0.382032144 C33.6580967,0.374190406 32.4735894,0.451699725 31.2988827,0.613980231 C27.359499,1.09910667 23.5067885,2.14632266 19.8541189,3.7248134 C13.7564989,6.45361443 8.96551167,11.0584662 5.21313011,17.6962747 C3.8630493,20.1002896 2.70242403,22.6095623 1.74217716,25.2004775 C1.25302742,26.510302 0.790680402,27.8678805 0.402040882,29.225459 C-0.217521817,31.2459656 0.0131604876,33.4375405 1.03917675,35.2785065 C2.06519302,37.1194726 3.79476563,38.4451547 5.81619143,38.9399906 L68.2665418,54.1462344 C68.932153,54.3088238 69.6342276,54.1799892 70.2021947,53.7910314 C70.7701618,53.4020736 71.1520381,52.788592 71.2550457,52.0996336 C71.2952498,51.8062875 71.3488552,51.5265854 71.415862,51.2400613 C72.0165169,48.7725761 73.3446833,46.5514219 75.2218491,44.8751329 C77.5177855,42.8254454 80.2390488,41.3305698 83.1822585,40.5022292 C86.8394788,39.3851779 89.0681671,35.6260653 88.3350825,31.810998 L86.0568508,19.3471993 C85.6975597,17.3529365 84.5711132,15.5872422 82.9276326,14.4421794 C73.0374269,7.73615091 47.8763684,0.382032144 34.8435431,0.382032144 L34.8435431,0.382032144 L34.8435431,0.382032144 L34.8435431,0.382032144 Z M66.6047728,30.7535876 L66.4104531,30.7535876 L32.9070462,25.4460696 C32.5974824,25.4007429 32.3187838,25.230696 32.1335625,24.9741315 C31.9483412,24.7175671 31.8721284,24.3959985 31.922046,24.0816691 L31.922046,23.965695 C32.0436233,23.4758018 32.4534462,23.1158274 32.9472503,23.0651907 L65.4723577,19.4699953 L65.6063713,19.4699953 C66.2061985,19.4695094 66.7108285,19.9274957 66.7789905,20.5342277 L67.7639907,29.4028311 C67.8063763,29.7422375 67.7011469,30.0835736 67.4758614,30.3374454 C67.2519675,30.5962137 66.9300846,30.7451732 66.5913714,30.7467656 L66.6047728,30.7535876 L66.6047728,30.7535876 L66.6047728,30.7535876 Z" stroke="#5A3E52" fill="#4E3447"></path>
                                    <path d="M69.0170181,50.646547 C68.9299092,51.0081132 68.8629024,51.3765013 68.809297,51.7312454 L6.35894662,36.5318237 C4.9943254,36.1919798 3.82856024,35.2925871 3.1381284,34.0469491 C2.44769657,32.801311 2.29410351,31.3203924 2.71377595,29.9554133 C3.1292182,28.5910127 3.38384409,28.0043205 4.05391223,26.0532278 L73.5466787,42.9786162 C71.3254644,45.0225115 69.7491809,47.6908864 69.0170181,50.646547 L69.0170181,50.646547 L69.0170181,50.646547 L69.0170181,50.646547 Z" fill="#B7EB6E"></path>
                                    <path d="M4.02040882,25.9986518 L73.5466787,42.9308621 C71.3004734,44.9593023 69.7194759,47.6404195 69.0170181,50.612437 C68.9299092,50.9740032 68.8562018,51.3560353 68.809297,51.7176014 L6.35224594,36.5250017 C4.98581718,36.1789851 3.82039187,35.2738315 3.13152041,34.0235534 C2.44264895,32.7732752 2.29148737,31.2888687 2.71377595,29.9213032 C3.1292182,28.5569027 3.47765363,27.6836864 4.05391223,25.9918298 L4.02040882,25.9986518 L4.02040882,25.9986518 L4.02040882,25.9986518 Z M4.05391223,23.5017988 C3.0088761,23.5029644 2.08002403,24.180009 1.74217716,25.1868335 C1.52775535,25.8281017 1.34013627,26.3533959 1.17931992,26.8309361 C0.904591985,27.6154664 0.663367456,28.2976666 0.395340201,29.177705 C-0.226781459,31.2304015 0.0158816895,33.4539124 1.06540834,35.3175073 C2.08724864,37.1487202 3.80620416,38.4693014 5.81619143,38.9672787 L68.2732425,54.1598784 C68.9388537,54.3224678 69.6409283,54.1936332 70.2088954,53.8046754 C70.7768625,53.4157176 71.1587388,52.802236 71.2617464,52.1132776 C71.3019504,51.8335755 71.3622566,51.5265854 71.4292634,51.2264173 C72.0220233,48.7511079 73.345648,46.5202037 75.2218491,44.8342009 C75.9038198,44.2194076 76.1937001,43.2696968 75.9741006,42.3696619 C75.7545011,41.4696271 75.0618117,40.7684134 74.1765428,40.5499832 L4.6033681,23.5768409 C4.41680011,23.5314395 4.22563361,23.5085422 4.03381018,23.5086208 L4.05391223,23.5017988 L4.05391223,23.5017988 L4.05391223,23.5017988 Z" stroke="#5A3E52" fill="#4E3447"></path>
                                    <path d="M20.8324184,5.98971825 C21.0427924,6.25354248 21.2353218,6.5316106 21.408677,6.82200256 C23.99514,11.0993982 22.5209901,16.7957703 18.1119417,19.5518594 C16.5993427,20.5027396 14.8574372,21.0080885 13.07973,21.0117679 C10.9792171,21.0241819 8.94061511,20.288099 7.31714406,18.9310571 C11.2370427,11.9930805 15.9811251,8.18640308 20.8391191,5.96925224 L20.8324184,5.98971825 L20.8324184,5.98971825 L20.8324184,5.98971825 Z M20.8391191,3.47922131 C20.4971763,3.48040993 20.1592999,3.55478699 19.8474182,3.69752539 C13.7430975,6.46043643 8.95211031,11.0311781 5.19972874,17.6689866 C4.60903053,18.7177287 4.84357783,20.0469192 5.7558853,20.8207518 C7.81791089,22.5496723 10.4084649,23.4907598 13.07973,23.4813328 C15.3092807,23.4775773 17.494177,22.8447173 19.3917719,21.6530361 C22.1053196,19.9749525 24.0492365,17.2641078 24.7925211,14.1215453 C25.4939317,11.1869608 25.0112581,8.08860306 23.4523848,5.51900008 C23.2209744,5.13071994 22.9635024,4.7591739 22.6818064,4.40701366 C22.2168927,3.8321161 21.5236519,3.49924231 20.7922143,3.49968732 L20.8391191,3.47922131 L20.8391191,3.47922131 L20.8391191,3.47922131 Z" fill="#4E3447"></path>
                                </g>
                                <rect id="Rectangle-path" fill="#4E3447" transform="translate(81.208037, 8.261985) rotate(-39.040000) translate(-81.208037, -8.261985) " x="74.3699916" y="5.94250459" width="13.6760907" height="4.63896174" rx="2.31948087"></rect>
                                <path d="M78.7464075,10.2807579 L90.827736,0.382032144" id="Shape" stroke="#4E3447" stroke-width="3.13"></path>
                            </g>
                            <path d="M66.533647,55.6746974 L67.5923547,57.8031622 C69.3866337,61.4230892 69.861503,65.5736552 68.932491,69.5165406" id="Shape" stroke="#FFFFFF" stroke-width="5" transform="translate(67.965161, 62.595619) rotate(-52.000000) translate(-67.965161, -62.595619) "></path>
                            <g id="Group-2" transform="translate(205.702152, 494.593884) rotate(22.000000) translate(-205.702152, -494.593884) translate(155.702152, 444.093884)">
                                <g id="Group">
                                    <rect id="Rectangle-path" fill="#717A89" transform="translate(78.528299, 20.622975) rotate(-51.460000) translate(-78.528299, -20.622975) " x="73.667" y="14.3197656" width="9.72259808" height="12.6064195" rx="3.56"></rect>
                                    <path d="M77.2452178,14.3676105 C78.0719045,14.3662681 78.8745065,14.6459078 79.5213769,15.1606614 L83.6411218,18.446158 C85.2190857,19.7095177 85.4813105,22.0097354 84.2281855,23.5958392 L82.7450773,25.4600238 C81.4817176,27.0379876 79.1814999,27.3002124 77.5953961,26.0470874 L73.4756512,22.7615908 C71.8976873,21.4982312 71.6354625,19.1980135 72.8885875,17.6119097 L74.3716957,15.7477251 C75.0689838,14.8735915 76.1270427,14.3654198 77.2452178,14.3676105 L77.2452178,14.3676105 L77.2452178,14.3676105 L77.2452178,14.3676105 Z M77.2452178,11.7000757 L77.2452178,11.7000757 C75.3168967,11.6935918 73.4916948,12.5701441 72.2912245,14.0792284 L70.8081163,15.943413 C69.7646104,17.2600058 69.2868823,18.9372175 69.4800346,20.6060534 C69.6731869,22.2748894 70.5213963,23.7986361 71.8380525,24.842062 L75.9577975,28.1275586 C78.7011485,30.2946491 82.6806336,29.8340606 84.8564466,27.0976224 L86.3395548,25.2334378 C88.5066453,22.4900868 88.0460567,18.5106017 85.3096185,16.3347887 L81.1898736,13.0492921 C80.0645134,12.1680427 78.6745464,11.6926232 77.2452178,11.7000757 L77.2452178,11.7000757 L77.2452178,11.7000757 L77.2452178,11.7000757 Z" id="Shape" stroke="#452D3F" fill="#4E3447"></path>
                                    <path d="M92.6221658,51.5689074 L33.9158003,94.9395224 C31.7092432,96.6667607 28.8802988,97.3912363 26.1151369,96.9372253 C23.349975,96.4832143 20.9012112,94.8921935 19.3628013,92.5500703 C19.0449427,92.0534849 18.7791844,91.5254198 18.5697504,90.9742678 L3.53268129,54.1025505 C2.68238752,51.8738625 3.51219536,49.3543423 5.52045823,48.0671242 L56.1521237,10.6598401 C58.0132556,9.15180381 60.6684502,9.126191 62.5583271,10.5980439 L93.5182103,36.0477683 C93.9352385,36.3450895 94.3155372,36.6908156 94.6511402,37.0777045 C96.4112133,39.2278356 97.1930283,42.0154905 96.8077355,44.7673026 C96.4224427,47.5191147 94.9050781,49.9848518 92.6221658,51.5689074 L92.6221658,51.5689074 L92.6221658,51.5689074 L92.6221658,51.5689074 Z" id="Shape" fill="#EFB643"></path>
                                    <path d="M59.4170215,9.43421593 C60.5465352,9.43566462 61.6398263,9.83289373 62.5068302,10.5568464 L93.4976116,35.9756728 C93.9678201,36.3464416 94.3991718,36.7639901 94.7850319,37.2218956 C96.588991,39.3894977 97.4125215,42.2085225 97.0591313,45.0063578 C96.7057411,47.8041931 95.2071244,50.3299112 92.9208473,51.9808819 L34.2144818,95.3514968 C32.4317016,96.688582 30.2633396,97.4113693 28.0348644,97.4113693 C24.5801597,97.4194976 21.3572955,95.6742643 19.4760942,92.7766563 C19.1344198,92.2461675 18.8446969,91.6839669 18.6109478,91.0978602 L3.50178321,54.1231493 C2.63291911,51.8836583 3.42779005,49.340926 5.41746461,47.9950287 L56.04913,10.5877445 C57.0072412,9.86072364 58.1732039,9.46003676 59.3758241,9.4445153 L59.4170215,9.43421593 L59.4170215,9.43421593 L59.4170215,9.43421593 Z M59.3758241,6.77698044 L59.3758241,6.77698044 C57.6059777,6.78882592 55.8869844,7.37025014 54.4733276,8.43517778 L3.88285961,45.8424619 C0.904367656,47.9028664 -0.257328378,51.7467136 1.08143305,55.1118881 L16.1905976,92.086599 C16.4887926,92.806088 16.8543292,93.4957796 17.2823301,94.1464714 C19.2268324,97.1381291 22.3240127,99.1903531 25.8369981,99.8148838 C29.3499835,100.439415 32.9647138,99.5804191 35.8211823,97.4422674 L94.5275479,54.0716525 C97.3820345,51.9780391 99.2458203,48.7990812 99.6786583,45.2856837 C100.111496,41.7722862 99.0750019,38.236024 96.8140063,35.5122015 C96.3194258,34.9263447 95.767367,34.3915377 95.1661083,33.9158003 L64.2165244,8.49697396 C62.8699028,7.37382545 61.1705385,6.7611791 59.4170215,6.76668108 L59.3758241,6.77698044 L59.3758241,6.77698044 L59.3758241,6.77698044 Z" id="Shape" stroke="#452D3F" fill="#4E3447"></path>
                                    <rect id="Rectangle-path" fill="#C97544" transform="translate(34.193642, 33.924155) rotate(-36.460000) translate(-34.193642, -33.924155) " x="9.47517234" y="10.7505894" width="49.4369394" height="46.3471307" rx="12.97"></rect>
                                    <path d="M37.4484816,5.53075759 C41.693665,5.52335384 45.6908348,7.52958148 48.2216146,10.9379228 L59.7363018,26.5002594 C64.1042223,32.437417 62.852044,40.7883415 56.9348752,45.1833027 L38.3033287,58.9432509 C35.4479846,61.0575358 31.8693763,61.9502511 28.3555309,61.4248162 C24.8416856,60.8993814 21.6807539,58.9988845 19.5687885,56.1418243 L8.11589755,40.5691884 C3.74797699,34.6320308 5.00015531,26.2811062 10.9173241,21.886145 L29.5282719,8.13649627 C31.817176,6.44200216 34.5903082,5.5284573 37.4381822,5.53075759 L37.4484816,5.53075759 L37.4484816,5.53075759 L37.4484816,5.53075759 Z M37.4381822,2.86322274 L37.4381822,2.86322274 C34.0228442,2.84459564 30.6926044,3.92818774 27.9421701,5.95303145 L9.33122231,19.7438777 C2.22330109,25.0091194 0.716881949,35.0334865 5.96333081,42.1552902 L17.508916,57.6764293 C20.5475915,61.7577807 25.3359989,64.1634399 30.4243164,64.1650276 C33.8396545,64.1836547 37.1698942,63.1000626 39.9203286,61.0752189 L58.5003783,47.3770669 C65.6082995,42.1118252 67.1147186,32.0874581 61.8682698,24.9656544 L50.363882,9.35182103 C47.3252066,5.27046965 42.5367991,2.8648104 37.4484816,2.86322274 L37.4381822,2.86322274 L37.4381822,2.86322274 L37.4381822,2.86322274 Z" id="Shape" stroke="#3D2738" fill="#4E3447"></path>
                                    <rect id="Rectangle-path" fill="#FCD2A9" transform="translate(36.020516, 36.406826) rotate(-36.460000) translate(-36.020516, -36.406826) " x="11.3020466" y="13.2332609" width="49.4369394" height="46.3471307" rx="14.02"></rect>
                                    <circle id="Oval" fill="#C97544" transform="translate(11.747530, 32.948745) rotate(-36.460000) translate(-11.747530, -32.948745) " cx="11.7475298" cy="32.9487449" r="2.1628661"></circle>
                                    <ellipse id="Oval" fill="#C97544" transform="translate(31.211727, 28.329811) rotate(-36.460000) translate(-31.211727, -28.329811) " cx="31.2117267" cy="28.3298112" rx="3.26489787" ry="3.26489787"></ellipse>
                                    <circle id="Oval" fill="#C97544" transform="translate(39.032122, 9.905416) rotate(-36.460000) translate(-39.032122, -9.905416) " cx="39.0321222" cy="9.90541625" r="1.10203177"></circle>
                                    <circle id="Oval" fill="#C97544" transform="translate(31.771577, 18.063885) rotate(-36.460000) translate(-31.771577, -18.063885) " cx="31.7715773" cy="18.063885" r="2.245261"></circle>
                                    <path d="M94.7541338,37.1806982 L19.5687885,92.797255 C19.5687885,92.797255 18.9405274,91.7673187 18.6933427,91.1184589 L3.57387874,54.1540474 C2.70862027,51.9198306 3.51935173,49.3846862 5.52045823,48.0671242 L56.1521237,10.6598401 C58.0132556,9.15180381 60.6684502,9.126191 62.5583271,10.5980439 L93.507911,35.9756728 C94.0125797,36.3876473 94.7541338,37.2115963 94.7541338,37.1806982 L94.7541338,37.1806982 L94.7541338,37.1806982 L94.7541338,37.1806982 Z" id="Shape" fill="#F7D752"></path>
                                    <path d="M59.4170215,9.43421593 C60.5465352,9.43566462 61.6398263,9.83289373 62.5068302,10.5568464 L93.4049174,35.9035772 C93.9095861,36.3052524 94.5584459,37.0777045 94.6099428,37.0777045 L94.6099428,37.0777045 L19.4245974,92.6324652 C19.4245974,92.6324652 18.8684319,91.6025289 18.6212472,91.0257646 L3.51208257,54.0716525 C2.64682409,51.8374357 3.45755556,49.3022913 5.45866206,47.9847293 L56.0903275,10.5774452 C57.0484386,9.85042428 58.2144013,9.4497374 59.4170215,9.43421593 L59.4170215,9.43421593 L59.4170215,9.43421593 L59.4170215,9.43421593 Z M59.4170215,6.77698044 L59.4170215,6.77698044 C57.6471752,6.78882592 55.9281818,7.37025014 54.514525,8.43517778 L3.88285961,45.8424619 C0.886475735,47.8891737 -0.290153333,51.7399598 1.05053496,55.1118881 L16.1288015,92.0351022 C16.3416667,92.5289825 16.5823717,93.0103925 16.8497568,93.4770129 L16.9836486,93.7241976 C16.4550247,92.5819608 16.8038427,91.2254466 17.8178969,90.4798984 L19.4039987,92.6221658 L20.9798012,94.7541338 L96.1651465,39.1993732 C96.852969,38.7139184 97.2712567,37.9322508 97.2935639,37.0906639 C97.315871,36.249077 96.9395792,35.4463482 96.2784395,34.9251378 L96.1857452,34.8324435 C95.8400667,34.4703053 95.4756566,34.1265223 95.0940128,33.8025073 L64.1959257,8.50727332 C62.8505911,7.39011178 61.1554186,6.78130791 59.4067222,6.7872798 L59.4170215,6.77698044 L59.4170215,6.77698044 L59.4170215,6.77698044 Z" id="Shape" stroke="#452D3F" fill="#4E3447"></path>
                                </g>
                                <path d="M17.6325084,47.7375446 C17.6325084,47.7375446 8.59996758,50.9818437 22.0200368,73.4344537" id="Shape" stroke="#FFFFFF" stroke-width="5"></path>
                            </g>
                            <polygon id="Shape" fill="#B74455" transform="translate(37.156437, 401.419428) rotate(-48.000000) translate(-37.156437, -401.419428) " points="41.3563819 391.83986 32.9564916 393.515618 34.458739 410.998996"></polygon>
                            <path d="M42.6476287,391.13739 L35.7499858,410.285852 L34.2477385,392.813147 L42.6476287,391.13739 L42.6476287,391.13739 L42.6476287,391.13739 L42.6476287,391.13739 Z M42.6476287,386.953334 C42.5841535,386.953334 42.5206782,387.124111 42.457203,387.124111 C42.2448749,387.163758 42.0361201,387.220874 41.8330298,387.294889 L33.507194,388.991994 C31.5962635,389.385792 30.2813977,391.162241 30.4498032,393.122682 L31.9520506,410.616734 C32.0689162,412.445946 33.4501257,413.937188 35.2510966,414.178595 C37.0520675,414.420002 38.7712908,413.34435 39.3574954,411.60938 L46.2022422,392.599675 C46.3918464,392.076489 46.4885392,391.523673 46.4878808,390.966612 C46.512505,388.818239 44.8388915,387.039824 42.711104,386.953334 L42.6476287,386.953334 L42.6476287,386.953334 L42.6476287,386.953334 Z" id="Shape" fill="#4E3447" transform="translate(38.461723, 400.582820) rotate(-48.000000) translate(-38.461723, -400.582820) "></path>
                            <rect id="Rectangle-path" fill="#EA7370" transform="translate(71.458539, 399.790555) rotate(-28.040000) translate(-71.458539, -399.790555) " x="44.5973418" y="366.168674" width="53.7223948" height="67.2437619" rx="12"></rect>
                            <path d="M80.8532265,387.676292 L32.1253996,369.819337 L32.0619243,369.979441 C33.0360005,367.009832 35.1603124,364.564667 37.9506568,363.201284 C40.7410012,361.837902 43.9595962,361.672483 46.872814,362.742732 L73.9555836,372.669192 C79.9222563,374.803915 83.2123896,381.015957 81.0436522,387.046549 L80.8532265,387.676292 L80.8532265,387.676292 L80.8532265,387.676292 Z" id="Shape" fill="#EA5350" transform="translate(56.887720, 374.860350) rotate(-48.000000) translate(-56.887720, -374.860350) "></path>
                            <path d="M41.2773135,363.156065 C42.4176634,363.157262 43.5490304,363.359546 44.6203428,363.753787 L75.5856814,375.099838 C78.0535015,376.006933 80.0630306,377.866059 81.1721069,380.268149 C82.2811832,382.670238 82.3989368,385.418481 81.499458,387.908174 L81.499458,387.908174 L31.9676114,369.763032 C33.3997933,365.828222 37.1120752,363.211975 41.2667342,363.209433 L41.2773135,363.156065 L41.2773135,363.156065 L41.2773135,363.156065 Z M41.2667342,359.366932 L41.2667342,359.366932 C35.5081078,359.377515 30.3657653,363.006722 28.3812603,368.460851 C28.0343137,369.420403 28.0803052,370.479839 28.5090746,371.405113 C28.937844,372.330387 29.7141045,373.045351 30.6663689,373.39206 L80.1982156,391.537202 C81.1492811,391.887245 82.1993461,391.840843 83.1164363,391.408247 C84.0335264,390.975651 84.742167,390.192464 85.0858092,389.231702 C87.6297086,382.065298 83.9761496,374.1691 76.897503,371.534851 L45.9215853,360.135433 C44.4328758,359.590202 42.8610732,359.312049 41.2773135,359.313564 L41.2667342,359.366932 L41.2667342,359.366932 L41.2667342,359.366932 Z" id="Shape" fill="#4E3447" transform="translate(57.022688, 375.541727) rotate(-48.000000) translate(-57.022688, -375.541727) "></path>
                            <path d="M65.01678,362.410936 C66.4854881,362.411522 67.9427468,362.671618 69.3225172,363.179436 L94.9876731,372.582889 C98.1529494,373.743048 100.731631,376.124567 102.156207,379.203326 C103.580782,382.282085 103.734505,385.805774 102.583544,388.998906 L88.5131985,428.075003 C86.6848891,433.149066 81.8993019,436.521613 76.5481155,436.507158 C75.0794074,436.506571 73.6221486,436.246476 72.2423783,435.738657 L46.5772224,426.335204 C39.9956108,423.914838 36.6010684,416.573177 38.9919311,409.929861 L53.0622762,370.84309 C54.8892684,365.772715 59.6694682,362.400983 65.01678,362.410936 L65.01678,362.410936 L65.01678,362.410936 L65.01678,362.410936 Z M65.01678,358.568435 L65.01678,358.568435 C58.0682479,358.572983 51.8598614,362.949113 49.4653458,369.530236 L35.3950008,408.617007 C32.2882299,417.264455 36.7096951,426.816748 45.2759799,429.964233 L70.9411358,439.367686 C72.7383035,440.026495 74.6359982,440.362458 76.5481155,440.360332 C83.4966476,440.355784 89.7050341,435.979655 92.0995496,429.398531 L106.180474,390.31176 C109.287245,381.664313 104.86578,372.112019 96.2994947,368.964534 L70.6237596,359.561081 C68.8265919,358.902273 66.9288973,358.566309 65.01678,358.568435 L65.01678,358.568435 L65.01678,358.568435 L65.01678,358.568435 Z" id="Shape" fill="#4E3447" transform="translate(70.787737, 399.464384) rotate(-48.000000) translate(-70.787737, -399.464384) "></path>
                            <rect id="Rectangle-path" fill="#EA5350" transform="translate(84.237910, 424.982808) rotate(241.960000) translate(-84.237910, -424.982808) " x="76.8324657" y="390.827246" width="14.8108896" height="68.3111232" rx="6.18"></rect>
                            <path d="M59.4095689,408.112199 C60.1707716,408.111515 60.9262264,408.24517 61.6417816,408.507123 L112.845143,427.271334 C114.475527,427.868335 115.803975,429.094492 116.538096,430.679932 C117.272217,432.265372 117.351844,434.08015 116.759449,435.724836 L116.018905,437.795517 C115.429538,439.442237 114.214516,440.784403 112.642317,441.525444 C111.070117,442.266486 109.270161,442.345401 107.640173,441.744754 L56.4368118,422.980542 C54.8064277,422.383542 53.4779801,421.157384 52.7438587,419.571944 C52.0097372,417.986505 51.9301109,416.171726 52.5225052,414.52704 L53.2630497,412.456359 C54.2021673,409.847983 56.658978,408.111588 59.4095689,408.112199 L59.4095689,408.112199 L59.4095689,408.112199 L59.4095689,408.112199 Z M59.4095689,404.269698 L59.4095689,404.269698 C55.0550161,404.277154 51.1681621,407.026494 49.6766986,411.154179 L48.9361541,413.22486 C47.0001544,418.641807 49.7726021,424.618052 55.1355693,426.588223 L106.338931,445.352435 C108.920136,446.300155 111.768926,446.173415 114.257432,445.000148 C116.745938,443.82688 118.669891,441.703392 119.605256,439.097697 L120.345801,437.027017 C121.285139,434.422778 121.15952,431.548566 119.996629,429.037853 C118.833739,426.52714 116.729033,424.586018 114.146385,423.642306 L62.943024,404.899441 C61.8107174,404.482861 60.614808,404.269723 59.4095689,404.269698 L59.4095689,404.269698 L59.4095689,404.269698 L59.4095689,404.269698 Z" id="Shape" fill="#4E3447" transform="translate(84.644456, 425.125749) rotate(-48.000000) translate(-84.644456, -425.125749) "></path>
                            <path d="M118.473906,435.958649 L117.955524,437.388913 C116.728336,440.793795 112.845768,442.981886 109.492159,441.743747 L58.4580649,423.043577 C54.978152,421.58312 53.1821831,417.681073 54.321595,414.056395 L54.8822929,412.615457 L118.473906,435.958649 L118.473906,435.958649 L118.473906,435.958649 Z" id="Shape" fill="#B74455" transform="translate(86.227011, 427.354550) rotate(-48.000000) translate(-86.227011, -427.354550) "></path>
                            <path d="M56.9019758,393.096471 L46.788254,421.18942" id="Shape" stroke="#FFFFFF" stroke-width="5" transform="translate(51.845115, 407.142945) rotate(-48.000000) translate(-51.845115, -407.142945) "></path>
                            <polyline id="Shape" stroke="#4E3447" stroke-width="4" transform="translate(101.030094, 378.079715) rotate(-48.000000) translate(-101.030094, -378.079715) " points="99.0359131 362.042612 103.711923 363.761063 98.3482647 394.116819"></polyline>
                            <rect id="Rectangle-path" fill="#848282" transform="translate(61.827860, 532.177839) rotate(17.430000) translate(-61.827860, -532.177839) " x="15.32786" y="500.677839" width="93" height="63" rx="12"></rect>
                            <path d="M34.64,491 C35.8510538,491.000607 37.0549192,491.186077 38.21,491.55 L104.28,512.29 C110.578881,514.277536 114.087386,520.981684 112.13,527.29 L100.42,564.66 C98.845307,569.667237 94.1989986,573.069939 88.95,573.06 C87.7389462,573.059393 86.5350808,572.873923 85.38,572.51 L19.31,551.77 C13.0111188,549.782464 9.5026143,543.078316 11.46,536.77 L23.17,499.49 C24.7124975,494.447136 29.366503,491.002279 34.64,491 L34.64,491 L34.64,491 L34.64,491 Z M34.64,487.47 L34.64,487.47 C27.8298171,487.449391 21.8060784,491.881954 19.8,498.39 L8.09,535.67 C5.5323445,543.853926 10.0818868,552.563817 18.26,555.14 L84.33,575.88 C92.5115243,578.444409 101.22413,573.897923 103.8,565.72 L115.51,528.44 C118.047425,520.262441 113.496682,511.572219 105.33,509 L39.26,488.22 C37.7617919,487.749091 36.2004723,487.509666 34.63,487.51 L34.64,487.47 L34.64,487.47 L34.64,487.47 Z" id="Shape" fill="#4E3447"></path>
                            <path d="M106.53,525 L94.46,563.42 C93.3101155,566.678863 89.8760303,568.534307 86.52,567.71 L21.12,547.18 C19.4827548,546.566737 18.1652093,545.314166 17.47,543.71 C16.8419292,542.274854 16.7357972,540.665186 17.17,539.16 L29.24,500.72 C30.3345411,497.520551 33.7291902,495.724672 36.99,496.62 L102.39,517.15 C105.616125,518.274866 107.423747,521.702361 106.53,525 L106.53,525 L106.53,525 L106.53,525 Z" id="Shape" fill="#53BCED"></path>
                            <path d="M106.53,525 L94.46,563.42 C93.3101155,566.678863 89.8760303,568.534307 86.52,567.71 L21.12,547.18 C19.4827548,546.566737 18.1652093,545.314166 17.47,543.71 C16.8419292,542.274854 16.7357972,540.665186 17.17,539.16 L29.24,500.72 C30.3345411,497.520551 33.7291902,495.724672 36.99,496.62 L102.39,517.15 C105.616125,518.274866 107.423747,521.702361 106.53,525 L106.53,525 L106.53,525 L106.53,525 Z" id="Shape" fill="#53BCED"></path>
                            <path d="M97.37,554.13 L94.45,563.42 C93.3001155,566.678863 89.8660303,568.534307 86.51,567.71 L21.12,547.18 C19.5116053,546.574016 18.2262934,545.328531 17.57,543.74 L41.31,535.32 C43.102994,534.66541 45.1086798,535.368865 46.1,537 L55,551.42 C55.5579471,552.340458 56.4633089,552.997212 57.5114977,553.241852 C58.5596865,553.486492 59.6622363,553.298372 60.57,552.72 L86.45,536.66 C87.5455779,536.007535 88.8782434,535.888129 90.0723609,536.335437 C91.2664785,536.782744 92.1927171,537.74832 92.59,538.96 L97.37,554.13 L97.37,554.13 L97.37,554.13 Z" id="Shape" fill="#B7EB6E"></path>
                            <path d="M105.57,524.68 L93.5,563.12 C92.5,566.25 89.64,568.69 86.5,567.71 L21.12,547.18 C19.4827548,546.566736 18.1652093,545.314166 17.47,543.71 C16.8419292,542.274854 16.7357972,540.665186 17.17,539.16 L29.24,500.72 C30.24,497.59 33.57,496.59 36.69,497.57 L102.09,518.1 C105.22,519.08 106.56,521.55 105.57,524.68 L105.57,524.68 L105.57,524.68 L105.57,524.68 Z" id="Shape" stroke="#4E3447" stroke-width="4"></path>
                            <circle id="Oval" fill="#FFCC33" transform="translate(43.705236, 515.293893) rotate(-72.570000) translate(-43.705236, -515.293893) " cx="43.7052359" cy="515.293893" r="6.49"></circle>
                            <path d="M51.44,565.19 L43.91,589.15" id="Shape" stroke="#4E3447" stroke-width="3.53"></path>
                            <path d="M64.21,596.34 L25.09,584.06" id="Shape" stroke="#4E3447" stroke-width="4"></path>
                            <path d="M328.804275,554.994254 L342.214962,503.796567" id="Shape" stroke="#4E3447" stroke-width="5.08"></path>
                            <polygon id="Shape" fill="#ADCEF2" points="388.899542 518.145522 295.89313 493.868582 334.751145 448.605746 376.07145 459.389403"></polygon>
                            <path d="M334.740153,448.638657 L376.060458,459.455224 L388.943511,517.98097 L295.89313,493.671119 L334.685191,448.693507 L334.740153,448.638657 L334.740153,448.638657 L334.740153,448.638657 Z M334.685191,443.822761 C333.260927,443.82298 331.907818,444.444072 330.980763,445.523134 L292.188702,490.500746 C291.091252,491.774156 290.728651,493.522007 291.229253,495.125602 C291.729855,496.729196 293.023018,497.962247 294.650992,498.388284 L387.657405,522.665224 C389.301345,523.094466 391.05066,522.639484 392.275553,521.464082 C393.500447,520.28868 394.024574,518.562079 393.659237,516.905896 L380.831145,458.358209 C380.437196,456.572783 379.074597,455.157866 377.302595,454.694179 L335.98229,443.910522 C335.580126,443.807268 335.166403,443.755657 334.751145,443.75694 L334.685191,443.822761 L334.685191,443.822761 L334.685191,443.822761 Z" id="Shape" fill="#4E3447"></path>
                            <path d="M353.789924,584.514925 L293.936489,568.893433 C292.809937,568.617441 291.933303,567.734817 291.666714,566.608149 C291.400124,565.481481 291.788528,564.300735 292.672366,563.55097 C302.83603,554.897482 316.596879,551.749445 329.522598,555.12083 C342.448317,558.492216 352.906022,567.957122 357.527328,580.46694 C357.928114,581.555771 357.684873,582.77686 356.897265,583.629919 C356.109656,584.482979 354.910047,584.824641 353.789924,584.514925 L353.789924,584.514925 L353.789924,584.514925 L353.789924,584.514925 Z" id="Shape" fill="#D5F5FF"></path>
                            <path d="M353.789924,584.514925 L293.936489,568.893433 C292.809937,568.617441 291.933303,567.734817 291.666714,566.608149 C291.400124,565.481481 291.788528,564.300735 292.672366,563.55097 C302.83603,554.897482 316.596879,551.749445 329.522598,555.12083 C342.448317,558.492216 352.906022,567.957122 357.527328,580.46694 C357.928114,581.555771 357.684873,582.77686 356.897265,583.629919 C356.109656,584.482979 354.910047,584.824641 353.789924,584.514925 L353.789924,584.514925 L353.789924,584.514925 L353.789924,584.514925 Z" id="Shape" fill="#649EB7"></path>
                            <path d="M319.16397,553.798507 C336.278509,553.833984 351.558364,564.507827 357.450382,580.543731 C357.801162,581.499665 357.663622,582.56618 357.081733,583.40232 C356.499843,584.238461 355.546475,584.739514 354.526412,584.745299 C354.251672,584.743746 353.978276,584.706875 353.712977,584.635597 L293.859542,569.014104 C292.731232,568.721292 291.859172,567.827428 291.596012,566.693978 C291.332851,565.560528 291.722123,564.374995 292.606412,563.616791 C300.003918,557.290594 309.421997,553.808746 319.16397,553.798507 L319.16397,553.798507 L319.16397,553.798507 L319.16397,553.798507 Z M319.16397,548.927761 L319.16397,548.927761 C308.278307,548.945153 297.755379,552.834657 289.48458,559.89791 C287.219275,561.834306 286.21907,564.866072 286.888576,567.766776 C287.558082,570.667481 289.786497,572.957064 292.672366,573.709328 L352.525802,589.330821 C355.780874,590.191627 359.227373,588.923738 361.143817,586.160448 C362.63835,584.022219 362.991346,581.289985 362.08916,578.843358 C355.477949,560.904093 338.371715,548.97144 319.218931,548.938731 L319.16397,548.927761 L319.16397,548.927761 L319.16397,548.927761 Z" id="Shape" fill="#4E3447"></path>
                            <path d="M340.840916,459.542985 L319.702595,485.63" id="Shape" stroke="#FFFFFF" stroke-width="5"></path>
                            <rect id="Rectangle-path" fill="#CAD2DB" transform="translate(355.829386, 324.295496) rotate(22.210000) translate(-355.829386, -324.295496) " x="309.986411" y="268.589389" width="91.6859504" height="111.412214" rx="12"></rect>
                            <path d="M342.640496,258.968397 C344.286099,258.970266 345.915592,259.291017 347.438017,259.912748 L408.206612,284.593206 C411.348321,285.870406 413.851423,288.337649 415.16506,291.451972 C416.478697,294.566294 416.49522,298.072482 415.210992,301.198931 L382.385289,381.161069 C380.414651,385.959863 375.717526,389.090444 370.50876,389.076641 C368.863158,389.074773 367.233664,388.754021 365.71124,388.13229 L304.942645,363.451832 C301.800935,362.174632 299.297833,359.707389 297.984196,356.593067 C296.670559,353.478744 296.654036,349.972556 297.938264,346.846107 L330.742645,266.862748 C332.713283,262.063954 337.410408,258.933373 342.619174,258.947176 L342.640496,258.968397 L342.640496,258.968397 L342.640496,258.968397 Z M342.619174,256.612824 L342.619174,256.612824 C336.453103,256.58915 330.891439,260.297572 328.567769,265.982061 L295.763388,345.96542 C292.612316,353.668506 296.323513,362.456304 304.057769,365.605802 L364.826364,390.28626 C372.56609,393.422415 381.395688,389.728786 384.560165,382.031145 L417.364545,302.047786 C420.515618,294.3447 416.80442,285.556902 409.070165,282.407405 L348.30157,257.726947 C346.495028,257.008032 344.564687,256.647581 342.619174,256.665878 L342.619174,256.612824 L342.619174,256.612824 L342.619174,256.612824 Z" id="Shape" stroke="#412A3B" stroke-width="2" fill="#4E3447"></path>
                            <path d="M338.970425,272.050563 L406.764722,272.050563 C413.75966,272.050563 419.430177,277.694236 419.430177,284.656059 L419.430177,295.394075 L326.678111,295.394075 L326.678111,284.284685 C326.678111,277.527966 332.181567,272.050563 338.970425,272.050563 L338.970425,272.050563 L338.970425,272.050563 L338.970425,272.050563 Z" id="Shape" fill="#F3F3F3" transform="translate(373.054144, 283.722319) rotate(22.210000) translate(-373.054144, -283.722319) "></path>
                            <path d="M342.640496,258.968397 C344.286099,258.970266 345.915592,259.291017 347.438017,259.912748 L408.206612,284.593206 C411.348321,285.870406 413.851423,288.337649 415.16506,291.451972 C416.478697,294.566294 416.49522,298.072482 415.210992,301.198931 L411.127769,311.162366 L326.702066,276.858015 L330.785289,266.89458 C332.755928,262.095786 337.453053,258.965205 342.661818,258.979008 L342.640496,258.968397 L342.640496,258.968397 L342.640496,258.968397 Z M342.661818,256.644656 L342.661818,256.644656 C336.495747,256.620982 330.934084,260.329404 328.610413,266.013893 L324.52719,275.977328 C324.042843,277.166909 324.614335,278.522517 325.806529,279.011985 L410.22157,313.358779 C411.41681,313.840833 412.778866,313.272046 413.270661,312.085496 L417.353884,302.122061 C420.492283,294.41905 416.784837,285.640135 409.059504,282.481679 L348.290909,257.801221 C346.484367,257.082307 344.554026,256.721856 342.608512,256.740153 L342.661818,256.644656 L342.661818,256.644656 L342.661818,256.644656 Z" id="Shape" stroke="#452D3F" fill="#4E3447"></path>
                            <rect id="Rectangle-path" fill="#9CA9B7" transform="translate(354.600850, 330.098957) rotate(22.210000) translate(-354.600850, -330.098957) " x="318.352916" y="301.450102" width="72.4958678" height="57.2977099" rx="9.33"></rect>
                            <rect id="Rectangle-path" stroke="#4E3447" stroke-width="4" transform="translate(353.904579, 330.385961) rotate(22.210000) translate(-353.904579, -330.385961) " x="317.656645" y="301.737106" width="72.4958678" height="57.2977099" rx="9.33"></rect>
                            <rect id="Rectangle-path" fill="#4E3447" transform="translate(372.847782, 284.213921) rotate(22.210000) translate(-372.847782, -284.213921) " x="363.785799" y="280.50018" width="18.1239669" height="7.42748092" rx="2.49"></rect>
                            <ellipse id="Oval" fill="#002632" transform="translate(349.079952, 274.570527) rotate(-67.790000) translate(-349.079952, -274.570527) " cx="349.079952" cy="274.570527" rx="4.34975207" ry="4.32916031"></ellipse>
                            <path d="M341.766281,302.504046 L383.227521,319.343206" id="Shape" stroke="#FFFFFF" stroke-width="5"></path>
                            <path d="M377.800992,345.19084 L374.325454,353.679389 C372.822231,357.350687 367.83281,358.984733 364.154711,357.435573 L335.529504,345.763817" id="Shape" stroke="#FFFFFF" stroke-width="5"></path>
                            <path d="M272.849072,408.241486 C274.313139,405.898978 276.687239,405.899582 278.150928,408.241486 L285.349072,419.758514 C286.813139,422.101022 285.759415,424 283.000963,424 L267.999037,424 C265.238145,424 264.187239,422.100418 265.650928,419.758514 L272.849072,408.241486 L272.849072,408.241486 L272.849072,408.241486 Z" id="Triangle" fill="#EE6436" transform="translate(275.499846, 415.242416) rotate(34.000000) translate(-275.499846, -415.242416) "></path>
                            <path d="M109.760536,11.2034782 C111.224604,8.8609703 113.598704,8.8615749 115.062394,11.2034782 L122.260537,22.720507 C123.724604,25.0630148 122.67088,26.9619926 119.912428,26.9619926 L104.910502,26.9619926 C102.14961,26.9619926 101.098704,25.0624103 102.562393,22.720507 L109.760536,11.2034782 L109.760536,11.2034782 L109.760536,11.2034782 Z" id="Triangle-Copy-4" fill="#F26240" transform="translate(112.411311, 18.204408) rotate(-39.000000) translate(-112.411311, -18.204408) "></path>
                            <path d="M258.498389,31.7178428 C259.962456,29.375335 262.336556,29.3759396 263.800246,31.7178428 L270.998389,43.2348716 C272.462456,45.5773794 271.408733,47.4763572 268.65028,47.4763572 L253.648355,47.4763572 C250.887463,47.4763572 249.836556,45.5767749 251.300246,43.2348716 L258.498389,31.7178428 L258.498389,31.7178428 L258.498389,31.7178428 Z" id="Triangle-Copy-5" fill="#F4B929" transform="translate(261.149163, 38.718773) rotate(42.000000) translate(-261.149163, -38.718773) "></path>
                            <path d="M369.29891,409.941164 C370.762978,407.598656 373.137078,407.599261 374.600767,409.941164 L381.79891,421.458193 C383.262978,423.800701 382.209254,425.699679 379.450802,425.699679 L364.448876,425.699679 C361.687984,425.699679 360.637078,423.800096 362.100767,421.458193 L369.29891,409.941164 L369.29891,409.941164 L369.29891,409.941164 Z" id="Triangle-Copy-9" fill="#64475C" transform="translate(371.949684, 416.942095) rotate(-21.000000) translate(-371.949684, -416.942095) "></path>
                            <path d="M24.2989108,313.941164 C25.7629782,311.598656 28.1370782,311.599261 29.6007678,313.941164 L36.7989108,325.458193 C38.2629782,327.800701 37.2092547,329.699679 34.4508018,329.699679 L19.4488768,329.699679 C16.6879847,329.699679 15.6370783,327.800096 17.1007678,325.458193 L24.2989108,313.941164 L24.2989108,313.941164 L24.2989108,313.941164 Z" id="Triangle-Copy-10" fill="#64475C" transform="translate(26.949685, 320.942094) rotate(-21.000000) translate(-26.949685, -320.942094) "></path>
                            <path d="M61.3544207,133.134136 C62.8184881,130.791628 65.1925882,130.792232 66.6562777,133.134136 L73.8544207,144.651164 C75.3184881,146.993672 74.2647646,148.89265 71.5063117,148.89265 L56.5043867,148.89265 C53.7434945,148.89265 52.6925882,146.993068 54.1562777,144.651164 L61.3544207,133.134136 L61.3544207,133.134136 L61.3544207,133.134136 Z" id="Triangle-Copy-7" fill="#55B08C" transform="translate(64.005195, 140.135066) rotate(-24.000000) translate(-64.005195, -140.135066) "></path>
                            <path d="M24.6339655,27.4772946 C26.0980329,25.1347868 28.472133,25.1353914 29.9358225,27.4772946 L37.1339655,38.9943235 C38.5980329,41.3368313 37.5443095,43.235809 34.7858566,43.235809 L19.7839314,43.235809 C17.0230392,43.235809 15.9721329,41.3362267 17.4358224,38.9943235 L24.6339655,27.4772946 L24.6339655,27.4772946 L24.6339655,27.4772946 Z" id="Triangle-Copy-8" fill="#00A0B3" transform="translate(27.284740, 34.478225) rotate(-26.000000) translate(-27.284740, -34.478225) "></path>
                            <path d="M167.985832,400.404846 C169.449899,398.062339 171.823999,398.062943 173.287688,400.404846 L180.485832,411.921875 C181.949899,414.264383 180.896175,416.163361 178.137723,416.163361 L163.135797,416.163361 C160.374905,416.163361 159.323999,414.263779 160.787688,411.921875 L167.985832,400.404846 L167.985832,400.404846 L167.985832,400.404846 Z" id="Triangle-Copy" fill="#F3BB29" transform="translate(170.636606, 407.405777) rotate(17.000000) translate(-170.636606, -407.405777) "></path>
                            <path d="M98.5906199,477.691087 C100.054687,475.348579 102.428787,475.349184 103.892477,477.691087 L111.09062,489.208116 C112.554687,491.550624 111.500964,493.449601 108.742511,493.449601 L93.7405858,493.449601 C90.9796937,493.449601 89.9287873,491.550019 91.3924768,489.208116 L98.5906199,477.691087 L98.5906199,477.691087 L98.5906199,477.691087 Z" id="Triangle-Copy-2" fill="#0099BA" transform="translate(101.241394, 484.692017) rotate(-27.000000) translate(-101.241394, -484.692017) "></path>
                            <path d="M377.59062,216.691087 C379.054687,214.348579 381.428788,214.349184 382.892477,216.691087 L390.09062,228.208116 C391.554687,230.550624 390.500964,232.449601 387.742511,232.449601 L372.740586,232.449601 C369.979694,232.449601 368.928788,230.550019 370.392477,228.208116 L377.59062,216.691087 L377.59062,216.691087 L377.59062,216.691087 Z" id="Triangle-Copy-11" fill="#0099BA" transform="translate(380.241394, 223.692017) rotate(-27.000000) translate(-380.241394, -223.692017) "></path>
                            <path d="M226.932762,555.067556 C228.396829,552.725048 230.770929,552.725653 232.234619,555.067556 L239.432762,566.584585 C240.896829,568.927092 239.843106,570.82607 237.084653,570.82607 L222.082728,570.82607 C219.321836,570.82607 218.270929,568.926488 219.734619,566.584585 L226.932762,555.067556 L226.932762,555.067556 L226.932762,555.067556 Z" id="Triangle-Copy-3" fill="#47B386" transform="translate(229.583536, 562.068486) rotate(33.000000) translate(-229.583536, -562.068486) "></path>
                        </g>
                    </g>
                </g>
            </g>
        </g>
    </g>
</svg>